<?xml version="1.0" encoding="utf-8"?>
<!-- Generator: Adobe Illustrator 13.0.0, SVG Export Plug-In . SVG Version: 6.00 Build 14948)  -->
<!DOCTYPE svg PUBLIC "-//W3C//DTD SVG 1.1//EN" "http://www.w3.org/Graphics/SVG/1.1/DTD/svg11.dtd">
<svg version="1.1" id="Ebene_1" xmlns="http://www.w3.org/2000/svg" xmlns:xlink="http://www.w3.org/1999/xlink" x="0px" y="0px"
	 width="690px" height="690px" viewBox="0 0 690 690" enable-background="new 0 0 690 690" xml:space="preserve">
<g>
	<g>
		<path fill="#DADCE0" d="M181.102,298.297c-1.13-11.265,7.086-21.315,18.352-22.445l0,0l131.999-13.25
			c11.266-1.13,21.315,7.084,22.445,18.351l0,0c1.13,11.265-7.086,21.313-18.351,22.446l0,0l-132,13.25
			c-0.696,0.069-1.387,0.104-2.071,0.104l0,0C191.076,316.752,182.162,308.866,181.102,298.297L181.102,298.297z"/>
	</g>
	<g>
		<path fill="#DADCE0" d="M173.359,199.469c-0.335-3.283,2.077-6.241,5.36-6.575l152.312-15.455
			c3.283-0.333,6.229,2.082,6.548,5.367l2.593,26.722c0.317,3.285-2.106,6.253-5.389,6.597l-152.065,15.917
			c-3.282,0.343-6.242-2.062-6.577-5.344L173.359,199.469z"/>
	</g>
	<g>
		<path fill="#DADCE0" d="M194.083,376.639c-0.321-3.285,2.102-6.26,5.383-6.609l150.817-16.102c3.281-0.35,6.227,2.051,6.542,5.336
			l2.515,26.055c0.315,3.285-2.109,6.252-5.393,6.594L203.134,407.59c-3.282,0.342-6.23-2.066-6.551-5.352L194.083,376.639z"/>
	</g>
	<g>
		<polyline fill="none" stroke="#DADCE0" stroke-width="7" stroke-linecap="round" stroke-linejoin="round" points="
			359.203,246.687 350.126,170.839 160.161,188.386 163.786,232.589 167.595,267.261 		"/>
		<polyline fill="none" stroke="#DADCE0" stroke-width="7" stroke-linecap="round" stroke-linejoin="round" points="
			175.536,334.444 179.478,370.553 183.966,416.791 324.481,402.693 		"/>
		<polyline fill="none" stroke="#DADCE0" stroke-width="7" stroke-linecap="round" stroke-linejoin="round" points="
			324.481,402.693 375.47,397.209 367.117,312.925 		"/>
		
			<line fill="none" stroke="#DADCE0" stroke-width="7" stroke-linecap="round" stroke-linejoin="round" x1="359.203" y1="246.687" x2="167.595" y2="267.261"/>
		
			<line fill="none" stroke="#DADCE0" stroke-width="7" stroke-linecap="round" stroke-linejoin="round" x1="171.567" y1="300.839" x2="104.524" y2="308.136"/>
		
			<line fill="none" stroke="#DADCE0" stroke-width="7" stroke-linecap="round" stroke-linejoin="round" x1="171.567" y1="300.839" x2="175.536" y2="334.444"/>
		
			<line fill="none" stroke="#DADCE0" stroke-width="7" stroke-linecap="round" stroke-linejoin="round" x1="167.595" y1="267.261" x2="171.567" y2="300.839"/>
		
			<line fill="none" stroke="#DADCE0" stroke-width="7" stroke-linecap="round" stroke-linejoin="round" x1="175.536" y1="334.444" x2="367.117" y2="312.925"/>
		
			<line fill="none" stroke="#DADCE0" stroke-width="12" stroke-linecap="round" stroke-linejoin="round" x1="548.306" y1="225.663" x2="390.06" y2="242.765"/>
		
			<line fill="none" stroke="#DADCE0" stroke-width="12" stroke-linecap="round" stroke-linejoin="round" x1="396.31" y1="310.097" x2="557.156" y2="294.878"/>
		
			<line fill="none" stroke="#DADCE0" stroke-width="12" stroke-linecap="round" stroke-linejoin="round" x1="359.203" y1="246.687" x2="367.117" y2="312.925"/>
		
			<line fill="none" stroke="#DADCE0" stroke-width="12" stroke-linecap="round" stroke-linejoin="round" x1="367.117" y1="312.925" x2="396.31" y2="310.097"/>
		
			<line fill="none" stroke="#DADCE0" stroke-width="12" stroke-linecap="round" stroke-linejoin="round" x1="390.06" y1="242.765" x2="359.203" y2="246.687"/>
	</g>
	<g>
		<path fill="#DADCE0" stroke="#FFFFFF" d="M476.009,538.92l24.026-2.906l0.728,2.185l1.449,1.539l2.719,0.991l2.354,26.828
			l-1.358,1.367l-1.359,1.637l-0.363,3.25l-25.207,2.359L476.009,538.92z M465.556,447.936l24.633-1.784l1.496,3.348l1.479,1.492
			l1.313,0.172l3.809,29.262l-1.496,0.992l-1.706,1.813l-0.484,2.754l-25.039,2.43L465.556,447.936z M451.86,387.654l67.629-8.117
			l10.332,29.262l-25.328,7.867l-48.69,5.656L451.86,387.654z M400.328,346.307l7.324,67.801l4.242,40.853l11.133-1.34l5.285,47.574
			l-3.594,0.473l0.996,7.668l3.457-0.445l2.266,20.398l-3.563,0.324l0.694,7.52l3.699-0.348l6.602,59.414l-11.479,1.487
			l4.789,41.845l40.233-11.961l41.23-13.527l-3.805-41.918l-1.617-13.25l-3.535-29.188l-10.648-101.43l81.074-24.695l-22.655-74.252
			l-84.664,9.281l-0.199-1.863l-9.349,0.918l-7.477,0.723l0.184,2.108L400.328,346.307z"/>
		<path fill="#DADCE0" stroke="#FFFFFF" d="M393.789,51.015l62.435-7.348l0.258,2.358l-3.957,0.349l0.031,8.164l-1.074,0.125
			l0.512-2.48L439.324,49.8l-4.02,20.996l12.777,2.434l1.059-6.105l4.711,0.918l2.129,9.133l3.746-0.422l0.242,2.332l-62.359,6.926
			L393.789,51.015z M240.149,47.491l12.293,111.039l117.273-12.684l-0.396-3.621l8.431-0.895l-4.125-39.66l78.413-8.688
			l52.724-5.832l-7.535-68.128L265.188,44.736L240.149,47.491z"/>
		<polygon fill="#DADCE0" stroke="#FFFFFF" points="236.009,432.646 240.419,479.854 253.906,598.951 255.974,614.439 
			259.478,647.373 259.872,650.971 260.251,654.568 260.009,655.088 260.642,658.166 266.321,657.35 270.821,655.463 
			274.931,654.744 280.079,656.131 288.114,655.635 292.388,653.576 296.481,652.287 301.149,653.822 307.22,653.998 
			311.403,652.756 314.755,651.291 318.621,650.721 321.399,651.217 325.328,651.541 328.938,651.541 334.028,650.225 
			338.285,648.092 346.078,648.338 353.103,648.092 352.707,644.494 352.317,640.893 351.923,637.295 348.328,604.314 
			328.438,422.67 326.31,422.893 291.224,426.693 274.688,428.479 		"/>
		<polygon fill="#DADCE0" stroke="#FFFFFF" points="118.962,671.443 136.544,670.252 210.532,663.33 209.337,647.721 
			238.185,644.096 240.087,659.904 254.028,658.861 253.966,655.51 260.009,655.088 260.251,654.568 259.872,650.971 
			259.478,647.373 255.974,614.439 253.906,598.951 176.521,607.662 179.599,568.178 188.513,568.502 188.497,572.174 
			192.845,572.076 193.962,559.045 192.106,558.771 193.071,548.846 171.853,551.229 177.017,486.9 199.583,484.443 
			199.567,487.568 215.786,486.006 215.528,482.705 240.419,479.854 236.009,432.646 204.911,436.021 153.274,441.607 
			143.021,442.799 143.005,449.076 136.966,449.725 121.728,637.346 132.614,637.717 134.563,653.553 120.489,654.842 		"/>
		<polygon fill="#DADCE0" stroke="#FFFFFF" points="328.438,422.67 348.328,604.314 427.121,595.229 411.896,454.959 
			407.653,414.107 		"/>
		<path fill="#DADCE0" stroke="#FFFFFF" d="M526.739,494.967l42.517-13.75l13.684,42.887l-42.863,14.021l-3.004-8.711
			L526.739,494.967z M494.039,428.256l10.648,101.43l3.535,29.188l27.727-5.809l29.724-5.884l21.371-3.969l29.813-8.938
			l-9.604-29.435l-1.798-5.656l-10.616-34.522l-19.724-61.102L494.039,428.256z"/>
		<polygon fill="#DADCE0" stroke="#FFFFFF" points="141.392,58.437 153.005,169.253 203.493,163.815 252.442,158.53 240.149,47.491 
					"/>
		<polygon fill="#DADCE0" stroke="#FFFFFF" points="240.149,47.491 252.442,158.53 369.716,145.847 369.321,142.226 
			377.751,141.331 373.626,101.671 372.824,93.479 362.828,94.522 361.996,117.628 274.325,127.21 272.876,114.104 275.79,113.46 
			274.536,103.878 279.536,102.862 279.536,100.132 288.282,98.89 288.067,81.193 284.11,67.866 275.368,68.687 274.13,65.585 
			267.044,66.4 265.188,44.736 		"/>
		<path fill="#DADCE0" stroke="#FFFFFF" d="M376.406,118.226l12.23-1.219l1.164,11.84l-12.219,1.215L376.406,118.226z
			 M373.626,101.671l4.125,39.66l8.168,71.352l78.444-8.684l-3.551-32.066l-37.484,4.145l-6.159-55.645l37.452-4.145l-2.582-23.306
			L373.626,101.671z"/>
		<path fill="#DADCE0" stroke="#FFFFFF" d="M98.349,82.386l26.43-3.078l6.767,57.879l-5.681,0.695l-20.749,2.406l-0.863-7.273
			l-5.181-44.449L98.349,82.386z M61.677,67.272l18.984,68.199l11.116,39.859l31.625-2.879l6.72-0.719l22.883-2.48L141.392,58.437
			L61.677,67.272z"/>
		<polygon fill="#DADCE0" stroke="#FFFFFF" points="452.039,92.982 454.621,116.288 478.199,113.46 479.239,122.815 
			471.582,123.687 475.66,160.616 483.228,159.772 484.285,169.327 460.813,171.933 464.364,203.999 517.074,198.14 504.763,87.15 
					"/>
		<polygon fill="#DADCE0" stroke="#FFFFFF" points="508.224,558.873 509.841,572.123 513.646,614.041 626.435,577.908 
			623.156,576.244 622.024,572.619 625.587,571.354 628.789,573.041 616.856,534.275 587.044,543.213 565.673,547.182 
			567.591,552.865 571.489,551.576 577.785,571.232 541.692,583.365 535.285,564.01 539.199,562.072 535.949,553.064 		"/>
		<polygon fill="#DADCE0" stroke="#FFFFFF" points="89.118,200.175 89.903,206.878 90.688,213.577 96.095,212.933 98.892,237.28 
			130.032,233.952 123.403,172.452 91.778,175.331 94.556,199.53 		"/>
		<polygon fill="#DADCE0" stroke="#FFFFFF" points="115.278,383.607 115.489,385.518 121.802,445.33 143.021,442.799 
			153.274,441.607 146.599,379.736 116.653,383.436 		"/>
		<polygon fill="#DADCE0" stroke="#FFFFFF" points="107.755,354.174 110.247,375.318 113.028,374.994 113.614,379.982 
			149.622,375.74 149.411,373.877 146.54,349.607 		"/>
		<polygon fill="#DADCE0" stroke="#FFFFFF" points="95.509,246.265 97.728,266.046 137.024,261.628 134.247,236.831 98.028,240.901 
			98.587,245.917 		"/>
		<polygon fill="#DADCE0" stroke="#FFFFFF" points="82.579,350.104 86.763,385.518 111.122,382.639 110.247,375.318 
			107.755,354.174 106.927,347.225 		"/>
		<polygon fill="#DADCE0" stroke="#FFFFFF" points="70.665,239.636 74.606,274.78 98.407,272.124 97.728,266.046 95.509,246.265 
			94.466,236.983 83.817,238.175 		"/>
		
			<path opacity="0.6" fill="#DADCE0" stroke="#FFFFFF" stroke-width="2" stroke-linejoin="round" stroke-miterlimit="10" enable-background="new    " d="
			M172.524,401.627v3.969c0,0.105-0.008,0.246-0.016,0.422c-0.012,0.168-0.016,0.313-0.016,0.438h0.03
			c0.039-0.052,0.099-0.125,0.172-0.22c0.082-0.102,0.164-0.207,0.25-0.313c0.082-0.102,0.156-0.188,0.22-0.25l1.703-1.813h1.03
			l-2.155,2.297l2.313,3.063h-1.063l-1.859-2.5l-0.609,0.531v1.969h-0.875v-7.594H172.524z"/>
		<polygon fill="#DADCE0" stroke="#FFFFFF" points="71.782,275.104 72.958,285.503 75.86,311.237 79.106,340.15 80.239,350.326 
			82.579,350.104 106.927,347.225 108.782,347.025 107.681,336.999 104.524,308.136 101.411,282.202 100.188,271.952 
			98.407,272.124 74.606,274.78 		"/>
	</g>
</g>
<circle fill="none" stroke="#4200FF" cx="345" cy="345.001" r="342.5"/>
<circle fill="none" stroke="#4200FF" cx="268.832" cy="296.211" r="129.426"/>
<path fill="#4200FF" d="M267.958,301.211c-6.433-9.324-7.626-10.282-7.626-13.708c0-4.694,3.806-8.5,8.5-8.5
	c4.693,0,8.5,3.806,8.5,8.5c0,3.427-1.194,4.384-7.626,13.708C269.283,301.821,268.38,301.821,267.958,301.211L267.958,301.211z
	 M268.832,291.043c1.956,0,3.542-1.585,3.542-3.541c0-1.957-1.585-3.541-3.542-3.541s-3.542,1.584-3.542,3.541
	C265.29,289.458,266.875,291.043,268.832,291.043z"/>
<g>
	<circle fill="#55C1FF" cx="204.167" cy="145.478" r="4"/>
	<circle fill="#55C1FF" cx="313.166" cy="137.658" r="4"/>
	<circle fill="#55C1FF" cx="404.834" cy="188.166" r="4"/>
	<circle fill="#55C1FF" cx="374.829" cy="451.021" r="4"/>
	<circle fill="#55C1FF" cx="428.834" cy="370.833" r="4"/>
	<circle fill="#55C1FF" cx="90.305" cy="309.594" r="4"/>
	<circle fill="#55C1FF" cx="137.848" cy="413.441" r="4"/>
	<circle fill="#55C1FF" cx="111.761" cy="204.747" r="4"/>
	<circle fill="#55C1FF" cx="124.08" cy="153.297" r="4"/>
	<circle fill="#55C1FF" cx="179.152" cy="461.269" r="4"/>
	<circle fill="#55C1FF" cx="288.572" cy="459.818" r="4"/>
	<circle fill="#55C1FF" cx="484.163" cy="267.493" r="4"/>
</g>
<circle fill="#FFFFFF" cx="275.917" cy="381.333" r="11.75"/>
<circle fill="#FFFFFF" cx="257.667" cy="205.083" r="11.75"/>
</svg>
