<?xml version="1.0" encoding="utf-8"?>
<!-- Generator: Adobe Illustrator 13.0.0, SVG Export Plug-In . SVG Version: 6.00 Build 14948)  -->
<!DOCTYPE svg PUBLIC "-//W3C//DTD SVG 1.1//EN" "http://www.w3.org/Graphics/SVG/1.1/DTD/svg11.dtd">
<svg version="1.1" id="Ebene_1" xmlns="http://www.w3.org/2000/svg" xmlns:xlink="http://www.w3.org/1999/xlink" x="0px" y="0px"
	 width="560px" height="220px" viewBox="0 0 560 220" enable-background="new 0 0 560 220" xml:space="preserve">
<path d="M554.724,160.151l-80-139.99c-7.089-12.407-20.438-20.155-34.729-20.155c-14.29,0-27.64,7.746-34.728,20.155l-45.271,79.216
	l-45.269-79.216c-7.09-12.407-20.439-20.155-34.727-20.155c-14.292,0-27.642,7.746-34.73,20.155l-79.998,139.99
	c-10.961,19.18-4.298,43.611,14.883,54.571s43.615,4.297,54.575-14.884l45.268-79.219l45.27,79.219
	c7.089,12.407,20.438,20.153,34.729,20.153s27.64-7.748,34.729-20.153l45.27-79.219l45.269,79.219
	c7.383,12.92,20.878,20.16,34.766,20.161c6.729,0,13.549-1.7,19.81-5.277C559.02,203.765,565.683,179.331,554.724,160.151z
	 M139.849,5.276c-19.18-10.959-43.614-4.294-54.575,14.885L5.277,160.149c-10.96,19.181-4.297,43.614,14.885,54.573
	c6.259,3.577,13.079,5.276,19.807,5.277c13.886,0,27.384-7.241,34.766-20.162L154.732,59.85
	C165.692,40.67,159.029,16.238,139.849,5.276z"/>
</svg>
