<?xml version="1.0" encoding="utf-8"?>
<!-- Generator: Adobe Illustrator 13.0.0, SVG Export Plug-In . SVG Version: 6.00 Build 14948)  -->
<!DOCTYPE svg PUBLIC "-//W3C//DTD SVG 1.1//EN" "http://www.w3.org/Graphics/SVG/1.1/DTD/svg11.dtd">
<svg version="1.1" id="Ebene_1" xmlns="http://www.w3.org/2000/svg" xmlns:xlink="http://www.w3.org/1999/xlink" x="0px" y="0px"
	 width="560px" height="220px" viewBox="0 0 560 220" enable-background="new 0 0 560 220" xml:space="preserve">
<path fill="#FFFFFF" d="M554.724,160.15l-80-139.989c-7.089-12.407-20.438-20.155-34.729-20.155c-14.29,0-27.64,7.746-34.728,20.155
	l-45.271,79.216l-45.269-79.216C307.637,7.754,294.288,0.006,280,0.006c-14.292,0-27.643,7.746-34.73,20.155L165.272,160.15
	c-10.961,19.181-4.298,43.611,14.883,54.572c19.182,10.959,43.615,4.297,54.575-14.885l45.269-79.219l45.27,79.219
	c7.089,12.407,20.438,20.153,34.729,20.153s27.641-7.748,34.729-20.153l45.27-79.219l45.27,79.219
	c7.383,12.92,20.878,20.16,34.766,20.161c6.729,0,13.549-1.7,19.811-5.276C559.02,203.766,565.683,179.331,554.724,160.15z
	 M139.849,5.276c-19.18-10.959-43.614-4.294-54.575,14.885L5.277,160.148c-10.96,19.182-4.297,43.615,14.886,54.574
	c6.259,3.576,13.079,5.275,19.807,5.276c13.886,0,27.384-7.241,34.766-20.162L154.732,59.85
	C165.692,40.67,159.029,16.238,139.849,5.276z"/>
</svg>
