<?xml version="1.0" encoding="utf-8"?>
<!-- Generator: Adobe Illustrator 13.0.0, SVG Export Plug-In . SVG Version: 6.00 Build 14948)  -->
<!DOCTYPE svg PUBLIC "-//W3C//DTD SVG 1.1//EN" "http://www.w3.org/Graphics/SVG/1.1/DTD/svg11.dtd">
<svg version="1.1" id="Ebene_1" xmlns="http://www.w3.org/2000/svg" xmlns:xlink="http://www.w3.org/1999/xlink" x="0px" y="0px"
	 width="580px" height="240px" viewBox="0 0 580 240" enable-background="new 0 0 580 240" xml:space="preserve">
<path fill="#FFFFFF" d="M154.83,6.59c-0.082-0.047-0.183-0.091-0.292-0.133C130.605-7.024,100.242,1.324,86.594,25.21L6.596,165.203
	c-13.7,23.977-5.369,54.518,18.605,68.217c0.146,0.083,0.309,0.16,0.482,0.235c23.904,13.329,54.143,4.967,67.753-18.856
	l79.999-139.993C187.135,50.829,178.804,20.288,154.83,6.59z"/>
<path fill="#FFFFFF" d="M573.404,165.188l-80-139.997C484.541,9.682,467.856,0,449.993,0c-17.86,0-34.548,9.682-43.411,25.19
	l-36.584,64.026L333.411,25.19C324.549,9.684,307.863,0,290.003,0c-17.863,0-34.551,9.682-43.413,25.19l-79.998,139.994
	c-13.699,23.971-5.376,54.504,18.586,68.209c0.006,0.004,0.011,0.008,0.017,0.012c23.968,13.693,54.491,5.377,68.199-18.572
	c0.006-0.012,0.015-0.021,0.021-0.033h-0.001L290,150.771l36.587,64.024c8.861,15.511,25.549,25.194,43.411,25.194
	c17.86,0,34.546-9.684,43.41-25.192l36.585-64.026l36.586,64.026c13.701,23.976,44.241,32.304,68.22,18.604
	C578.775,219.703,587.104,189.162,573.404,165.188z"/>
</svg>
