<svg id="Capa_1" enable-background="new 0 0 512 512" height="512" viewBox="0 0 512 512" width="512" xmlns="http://www.w3.org/2000/svg"><g><g><path d="m149.663 225.865c0-13.527-11.005-24.532-24.532-24.532s-24.532 11.005-24.532 24.532 11.005 24.532 24.532 24.532c13.527-.001 24.532-11.005 24.532-24.532zm-24.532 9.531c-5.256 0-9.532-4.276-9.532-9.532s4.276-9.532 9.532-9.532 9.532 4.276 9.532 9.532-4.276 9.532-9.532 9.532z"/><path d="m24.82 288.357 84.185 48.604c1.928 1.114 4.09 1.671 6.251 1.671s4.322-.557 6.25-1.67l58.349-33.688 21.449 21.45c1.464 1.465 3.384 2.197 5.303 2.197s3.839-.732 5.303-2.197c2.929-2.929 2.929-7.678 0-10.606l-18.607-18.608 12.388-7.152c3.855-2.226 6.25-6.374 6.25-10.825v-35.533c0-4.142-3.358-7.5-7.5-7.5s-7.5 3.358-7.5 7.5v34.089l-14.619 8.44-10.153-10.153c-2.928-2.929-7.677-2.929-10.606 0s-2.929 7.678 0 10.606l7.311 7.311-53.618 30.957-81.686-47.161v-94.323l81.686-47.162 26.226 15.142c-2.387 4.274-3.689 9.12-3.689 14.117 0 16.031 13.042 29.073 29.074 29.073 10.438 0 19.79-5.589 24.924-14.144l5.151 2.974v25.234c0 4.142 3.358 7.5 7.5 7.5s7.5-3.358 7.5-7.5v-26.677c0-4.452-2.395-8.6-6.25-10.825l-84.187-48.605c-3.855-2.226-8.645-2.225-12.499 0l-84.186 48.605c-3.855 2.226-6.25 6.374-6.25 10.825v97.209c0 4.452 2.395 8.6 6.25 10.825zm129.642-131.116 24.35 14.058c-2.508 4.024-6.975 6.637-11.945 6.637-7.76 0-14.074-6.313-14.074-14.073 0-2.334.585-4.604 1.669-6.622z"/><path d="m57.377 244.406c-2.929 2.929-2.929 7.678 0 10.606l13.625 13.625c1.464 1.464 3.384 2.197 5.303 2.197s3.839-.732 5.303-2.197c2.929-2.929 2.929-7.678 0-10.606l-13.625-13.625c-2.928-2.928-7.677-2.928-10.606 0z"/><path d="m85.875 186.946c-2.929-2.929-7.678-2.929-10.606 0l-13.625 13.625c-2.929 2.929-2.929 7.678 0 10.606 1.464 1.464 3.384 2.197 5.303 2.197s3.839-.732 5.303-2.197l13.625-13.625c2.929-2.928 2.929-7.677 0-10.606z"/><path d="m166.673 240.88-7.948 7.948c-2.929 2.929-2.929 7.678 0 10.606 1.464 1.464 3.384 2.197 5.303 2.197s3.839-.732 5.303-2.197l7.948-7.948c2.929-2.929 2.929-7.678 0-10.606-2.928-2.929-7.677-2.929-10.606 0z"/><circle cx="122.016" cy="287.06" r="8.516"/><circle cx="104.984" cy="162.159" r="8.516"/><path d="m490.024 325.844v-62.653c0-7.434-2.58-14.707-7.264-20.479l-23.515-28.976c-2.611-3.217-7.334-3.707-10.55-1.098-3.216 2.61-3.708 7.333-1.098 10.55l23.515 28.976c2.522 3.108 3.912 7.025 3.912 11.027v25.47h-59.203v-34.338c0-1.486-.441-2.938-1.268-4.172l-38.009-56.773c-1.393-2.08-3.73-3.328-6.232-3.328h-126.857v-31.763h143.137c5.297 0 10.25 2.359 13.588 6.472l25.361 31.251c2.611 3.217 7.334 3.707 10.55 1.098 3.216-2.61 3.708-7.333 1.098-10.55l-25.362-31.251c-6.199-7.639-15.397-12.02-25.235-12.02h-15.791v-14.118h1.113c5.79 0 10.5-4.71 10.5-10.5v-4.216c0-3.608-.422-7.118-1.195-10.496l25.668-25.668c1.583.708 3.307 1.091 5.094 1.091 3.338 0 6.478-1.3 8.838-3.661l26.808-26.807c2.361-2.361 3.661-5.5 3.661-8.839s-1.3-6.478-3.661-8.839l-27.579-27.578c-4.874-4.875-12.805-4.874-17.677 0l-26.807 26.808c-2.361 2.361-3.661 5.5-3.661 8.839 0 1.786.383 3.51 1.091 5.093l-24.802 24.802c-4.08-1.158-8.379-1.791-12.825-1.791h-81.476c-5.79 0-10.5 4.71-10.5 10.5v40.763c0 5.79 4.71 10.5 10.5 10.5h1.113v14.118h-14.049c-6.893 0-12.5 5.607-12.5 12.5v36.763c0 6.893 5.607 12.5 12.5 12.5h18.074v15.657h-7.577c-7.266 0-13.178 5.911-13.178 13.177v17.241c0 7.266 5.912 13.177 13.178 13.177h5.564v19.918c0 4.142 3.358 7.5 7.5 7.5s7.5-3.358 7.5-7.5v-19.918h9.811v18.782c0 7.266 5.911 13.178 13.177 13.178h17.111c7.266 0 13.177-5.912 13.177-13.178v-18.782h10.069v19.918c0 4.142 3.358 7.5 7.5 7.5s7.5-3.358 7.5-7.5v-19.918h5.307c7.266 0 13.177-5.911 13.177-13.177v-17.241c0-7.266-5.911-13.177-13.177-13.177h-7.577v-15.658h18.216l34.514 51.552v61.581h-164.692c-7.266 0-13.177 5.911-13.177 13.177v20.8c0 7.266 5.911 13.177 13.177 13.177h129.891v53.316h-20.199v-16.345c0-7.266-5.911-13.177-13.177-13.177h-58.306c-7.266 0-13.177 5.911-13.177 13.177v16.345h-20.489c-6.566 0-12.532 2.598-16.94 6.813h-14.611c3.413-7.835 3.931-16.763 1.145-25.233-.744-2.262-2.519-4.037-4.781-4.781-10.866-3.573-22.49-1.722-31.582 4.734v-1.284c0-4.142-3.358-7.5-7.5-7.5s-7.5 3.358-7.5 7.5v1.284c-9.092-6.456-20.715-8.308-31.583-4.734-2.262.744-4.037 2.519-4.781 4.781-2.786 8.47-2.267 17.398 1.145 25.233h-11.287c3.413-7.835 3.931-16.763 1.145-25.233-.744-2.262-2.519-4.037-4.781-4.781-10.867-3.573-22.49-1.722-31.582 4.734v-1.284c0-4.142-3.358-7.5-7.5-7.5s-7.5 3.358-7.5 7.5v1.284c-9.092-6.456-20.714-8.308-31.583-4.734-2.262.744-4.037 2.519-4.781 4.781-2.786 8.47-2.267 17.398 1.145 25.233h-11.787c-6.893 0-12.5 5.607-12.5 12.5v56.534c0 9.649 7.851 17.5 17.5 17.5h246.286c6.893 0 12.5-5.607 12.5-12.5v-13.37h21.041c4.142 0 7.5-3.358 7.5-7.5s-3.358-7.5-7.5-7.5h-68.86v-27.945c0-5.256 4.276-9.532 9.532-9.532h234.353v37.477h-140.025c-4.142 0-7.5 3.358-7.5 7.5s3.358 7.5 7.5 7.5h92.205v13.37c0 6.893 5.607 12.5 12.5 12.5h37.819c6.893 0 12.5-5.607 12.5-12.5v-104.75c11.57-7.121 19.303-19.899 19.303-34.453s-7.733-27.332-19.303-34.453zm-134.223-182.557h-85.797v-14.118h85.797zm55.408-127.257 24.043 24.042-23.272 23.272-24.042-24.042zm-28.197 39.559 12.681 12.681-20.767 20.767c-3.27-5.072-7.485-9.475-12.399-12.963zm-124.621 26.817h76.976c17.576 0 31.893 14.223 32.046 31.763h-109.022zm15.637 122.644h59.063v15.657h-59.063zm36.265 76.213h-13.466v-16.96h13.466zm43.553-45.555v13.596h-100.572v-13.596zm-173.95 178.958c4.54-4.54 10.794-6.629 17.002-5.845.782 6.208-1.306 12.462-5.845 17.002-4.539 4.539-10.793 6.629-17.001 5.844-.783-6.207 1.304-12.462 5.844-17.001zm-43.987-5.845c6.205-.782 12.462 1.306 17.002 5.845s6.627 10.793 5.845 17.001c-6.209.785-12.463-1.305-17.001-5.844-4.541-4.539-6.629-10.794-5.846-17.002zm.066 31.645c5.965 4.168 12.997 6.371 20.187 6.371.912 0 1.826-.042 2.741-.114v9.4h-81.722v-9.394c.915.071 1.829.107 2.741.107 7.189 0 14.221-2.203 20.186-6.371h35.867zm-52.802-25.8c4.541-4.54 10.796-6.629 17.002-5.845.782 6.208-1.306 12.462-5.845 17.002-4.539 4.539-10.792 6.629-17.001 5.844-.783-6.207 1.305-12.462 5.844-17.001zm-43.987-5.845c6.204-.782 12.462 1.305 17.002 5.845 4.539 4.54 6.627 10.794 5.845 17.001-6.207.785-12.463-1.305-17.001-5.844-4.54-4.539-6.628-10.794-5.846-17.002zm-21.513 31.645h21.579c5.965 4.168 12.997 6.371 20.187 6.371.912 0 1.826-.036 2.741-.107v9.394h-44.507zm198.467 56.534h-195.967c-1.378 0-2.5-1.122-2.5-2.5v-23.376h198.467zm0-53.815v12.938h-42.236v-9.4c.915.072 1.829.114 2.741.114 7.189 0 14.221-2.203 20.186-6.371h19.463c-.099.894-.154 1.8-.154 2.719zm47.819 42.945v10.87h-32.819v-10.87zm66.862-67.477h-54.661v-14.522h54.661zm70 0h-19.801v-53.316h19.801zm0-68.316h-162.869v-17.154h162.869zm74.203 146.663h-32.819v-10.87h32.819zm0-78.347h-59.203v-114.992h59.203v16.671c-1.998-.305-4.044-.464-6.125-.464-22.292 0-40.428 18.136-40.428 40.428s18.136 40.428 40.428 40.428c2.082 0 4.127-.159 6.125-.464zm-6.126-32.928c-14.021 0-25.428-11.407-25.428-25.428s11.407-25.428 25.428-25.428 25.428 11.407 25.428 25.428-11.407 25.428-25.428 25.428z"/></g></g></svg>