<svg id="Capa_1" enable-background="new 0 0 512.166 512.166" height="512" viewBox="0 0 512.166 512.166" width="512" xmlns="http://www.w3.org/2000/svg"><g><g><g><path d="m416.039 0h-319.913c-12.022 0-21.803 9.781-21.803 21.803v468.582c0 12.01 9.771 21.781 21.781 21.781h40.146c4.142 0 7.5-3.358 7.5-7.5s-3.358-7.5-7.5-7.5h-40.146c-3.739 0-6.781-3.042-6.781-6.781v-411.238h333.52v411.237c0 3.739-3.042 6.781-6.781 6.781h-244.729c-4.142 0-7.5 3.358-7.5 7.5s3.358 7.5 7.5 7.5h244.729c12.01 0 21.781-9.771 21.781-21.781v-468.581c0-12.022-9.781-21.803-21.804-21.803zm-263.422 64.097h-63.294v-42.294c0-3.751 3.052-6.803 6.803-6.803h56.491zm270.226 0h-255.226v-49.097h248.422c3.751 0 6.803 3.052 6.803 6.803v42.294z"/><path d="m330.719 279.734c14.549 0 26.385-11.836 26.385-26.385v-107.639c0-14.549-11.836-26.385-26.385-26.385s-26.385 11.836-26.385 26.385v107.639c0 14.549 11.836 26.385 26.385 26.385zm-11.385-134.024c0-6.278 5.107-11.385 11.385-11.385 6.277 0 11.385 5.107 11.385 11.385v107.639c0 6.278-5.107 11.385-11.385 11.385s-11.385-5.107-11.385-11.385z"/><path d="m181.446 119.326c-14.549 0-26.385 11.836-26.385 26.385v74.066c0 20.647 10.051 37.982 29.067 50.132 10.178 6.502 21.62 9.807 34.019 9.824h.089c10.553 0 20.507-2.317 29.586-6.888 22.443-11.304 34.803-30.178 34.803-53.146v-73.989c0-14.549-11.836-26.385-26.385-26.385s-26.385 11.836-26.385 26.385v73.99c0 1.386 0 3.11-5.767 6.015-1.693.853-3.552 1.25-5.878 1.25-2.247-.003-4.049-.487-5.671-1.524-4.707-3.007-4.707-4.063-4.707-5.662v-74.066c-.001-14.551-11.837-26.387-26.386-26.387zm36.79 122.638c4.666 0 8.787-.933 12.599-2.853 12.567-6.329 14.02-14.109 14.02-19.412v-73.989c0-6.278 5.107-11.385 11.385-11.385s11.385 5.107 11.385 11.385v73.99c0 17.256-9.181 31.001-26.549 39.749-6.966 3.507-14.651 5.285-22.84 5.285v7.5l-.079-7.5c-9.488-.013-18.22-2.525-25.953-7.465-14.9-9.52-22.143-21.784-22.143-37.492v-74.066c0-6.278 5.107-11.385 11.385-11.385s11.385 5.107 11.385 11.385v74.066c0 5.647 1.409 11.772 11.63 18.302 4.022 2.57 8.64 3.878 13.775 3.885z"/><path d="m114.563 322.447v40.952c0 6.893 5.607 12.5 12.5 12.5l258.039-.005c6.893 0 12.5-5.607 12.5-12.5v-40.948c0-6.893-5.607-12.5-12.5-12.5h-72.279c-4.142 0-7.5 3.358-7.5 7.5s3.358 7.5 7.5 7.5h21.46v35.954h-204.72v-35.953h148.52c4.142 0 7.5-3.358 7.5-7.5s-3.358-7.5-7.5-7.5h-151.02c-6.892 0-12.5 5.608-12.5 12.5zm234.719 2.5h33.319v35.948h-33.319z"/><path d="m191.843 390.298c-6.893 0-12.5 5.607-12.5 12.5v40.945c0 6.893 5.607 12.5 12.5 12.5h128.479c6.893 0 12.5-5.607 12.5-12.5v-40.945c0-6.893-5.607-12.5-12.5-12.5zm125.979 50.946h-123.479v-35.945h123.479z"/></g></g></g></svg>