<?xml version="1.0" encoding="utf-8"?>
<!-- Generator: Adobe Illustrator 13.0.0, SVG Export Plug-In . SVG Version: 6.00 Build 14948)  -->
<!DOCTYPE svg PUBLIC "-//W3C//DTD SVG 1.1//EN" "http://www.w3.org/Graphics/SVG/1.1/DTD/svg11.dtd">
<svg version="1.1" id="favicon" xmlns="http://www.w3.org/2000/svg" xmlns:xlink="http://www.w3.org/1999/xlink" x="0px" y="0px"
	 width="512px" height="512px" viewBox="0 0 512 512" enable-background="new 0 0 512 512" xml:space="preserve">
<rect fill="#4200FF" width="512" height="512"/>
<path fill="#FFFFFF" d="M73.856,232.674v-32.887h36.682V80.886H73.856V47.999h111.312v32.887h-36.682v118.901h36.682v32.887H73.856z
	"/>
<path fill="#FFFFFF" d="M382.489,235.204c-12.988,0-24.285-2.194-33.898-6.578c-9.613-4.383-17.037-10.538-22.263-18.467
	c-5.229-7.925-7.843-17.286-7.843-28.081h37.947c0,6.242,2.403,11.175,7.21,14.799c4.807,3.629,11.341,5.439,19.606,5.439
	c7.925,0,14.123-1.771,18.594-5.313c4.467-3.542,6.704-8.431,6.704-14.673c0-5.396-1.688-10.032-5.06-13.914
	c-3.376-3.878-8.096-6.491-14.167-7.842l-18.721-4.301c-15.685-3.708-27.871-10.582-36.556-20.618
	c-8.688-10.032-13.028-22.302-13.028-36.809c0-10.791,2.486-20.195,7.463-28.207c4.973-8.008,12.017-14.207,21.124-18.594
	c9.107-4.383,19.898-6.577,32.381-6.577c18.887,0,33.856,4.68,44.904,14.04c11.044,9.36,16.57,21.97,16.57,37.821h-37.947
	c0-5.902-2.067-10.538-6.198-13.914c-4.134-3.372-10.079-5.06-17.835-5.06c-7.253,0-12.818,1.645-16.696,4.933
	c-3.882,3.289-5.818,7.969-5.818,14.041c0,5.399,1.557,9.993,4.68,13.787c3.119,3.795,7.546,6.368,13.281,7.716l19.732,4.553
	c16.357,3.712,28.753,10.416,37.188,20.112c8.432,9.7,12.649,22.053,12.649,37.062c0,10.795-2.657,20.325-7.97,28.586
	c-5.313,8.266-12.735,14.673-22.262,19.227C406.732,232.927,395.475,235.204,382.489,235.204z"/>
<path fill="#FFFFFF" d="M129.512,467.946c-12.313,0-23.021-2.32-32.128-6.957S81.232,449.857,76.26,441.51
	c-4.977-8.349-7.463-18.089-7.463-29.22v-78.424c0-11.131,2.486-20.871,7.463-29.219c4.973-8.349,12.017-14.839,21.124-19.479
	c9.107-4.637,19.815-6.957,32.128-6.957c12.479,0,23.23,2.32,32.255,6.957c9.021,4.641,16.021,11.131,20.998,19.479
	c4.973,8.348,7.463,18.088,7.463,29.219v78.424c0,11.131-2.49,20.871-7.463,29.22c-4.977,8.348-11.977,14.843-20.998,19.479
	C152.743,465.626,141.991,467.946,129.512,467.946z M129.512,435.059c7.589,0,13.281-1.98,17.076-5.945
	c3.794-3.961,5.692-9.569,5.692-16.823v-78.424c0-7.419-1.858-13.067-5.565-16.949c-3.712-3.878-9.447-5.818-17.203-5.818
	c-7.759,0-13.495,1.94-17.203,5.818c-3.712,3.882-5.565,9.53-5.565,16.949v78.424c0,7.254,1.897,12.862,5.692,16.823
	C116.231,433.078,121.923,435.059,129.512,435.059z"/>
<rect x="317" y="280.666" fill="#FFFFFF" width="130.667" height="184.771"/>
</svg>
