<?xml version="1.0" encoding="utf-8"?>
<!-- Generator: Adobe Illustrator 13.0.0, SVG Export Plug-In . SVG Version: 6.00 Build 14948)  -->
<!DOCTYPE svg PUBLIC "-//W3C//DTD SVG 1.1//EN" "http://www.w3.org/Graphics/SVG/1.1/DTD/svg11.dtd">
<svg version="1.1" id="Ebene_1" xmlns="http://www.w3.org/2000/svg" xmlns:xlink="http://www.w3.org/1999/xlink" x="0px" y="0px"
	 width="200px" height="180px" viewBox="0 0 200 180" enable-background="new 0 0 200 180" xml:space="preserve">
<path fill="#4200FF" d="M199.997,20c0-9.06-6.109-17.004-14.865-19.329c-8.757-2.327-18.003,1.54-22.498,9.407L120,84.688V20
	c0-9.06-6.111-17.004-14.867-19.329c-8.757-2.327-18.004,1.54-22.499,9.407L40,84.688v-4.687c0-11.046-8.955-20-20-20
	C8.954,60.001,0,68.955,0,80.001v80c0,9.059,6.111,17.004,14.866,19.328c8.757,2.327,18.004-1.541,22.5-9.406l42.633-74.611v64.689
	c0,9.059,6.112,17.004,14.867,19.328c1.703,0.453,3.426,0.671,5.127,0.671c7.049,0.001,13.752-3.741,17.373-10.077l42.633-74.611
	v64.689c0,11.044,8.954,19.999,19.999,19.999c11.047,0,20.002-8.955,20.002-19.999L199.997,20z M20,40.001c11.045,0,20-8.955,20-20
	s-8.955-20-20-20s-20,8.955-20,20S8.955,40.001,20,40.001z"/>
</svg>
